<svg xmlns="http://www.w3.org/2000/svg" xmlns:xlink="http://www.w3.org/1999/xlink" viewBox="0,0,256,256" width="80px" height="80px" fill-rule="nonzero"><g fill="none" fill-rule="nonzero" stroke="none" stroke-width="1" stroke-linecap="butt" stroke-linejoin="miter" stroke-miterlimit="10" stroke-dasharray="" stroke-dashoffset="0" font-family="none" font-weight="none" font-size="none" text-anchor="none" style="mix-blend-mode: normal"><g transform="scale(3.2,3.2)"><path d="M15.588,77.485c-3.521,0 -6.823,-1.378 -9.3,-3.879c-2.46,-2.484 -3.805,-5.777 -3.788,-9.273c0.018,-3.496 1.396,-6.776 3.879,-9.235l30.497,-30.169l18.417,18.6l-30.497,30.168c-2.467,2.443 -5.736,3.788 -9.208,3.788zM16,57.5c-3.566,0 -6.482,2.901 -6.5,6.468c-0.009,1.736 0.659,3.372 1.881,4.605c1.222,1.233 2.851,1.918 4.587,1.927c3.599,0 6.515,-2.901 6.532,-6.468c0.018,-3.584 -2.884,-6.514 -6.468,-6.532z" fill="#434343"></path><path d="M36.872,25.635l17.713,17.889l-30.141,29.818c-2.372,2.349 -5.518,3.643 -8.856,3.643c-3.386,0 -6.563,-1.325 -8.945,-3.731c-4.884,-4.932 -4.844,-12.918 0.088,-17.801l30.141,-29.818M15.998,71h0.003c3.84,0 6.98,-3.125 6.999,-6.965c0.019,-3.86 -3.106,-7.015 -7.001,-7.035c-3.84,0 -6.98,3.125 -6.999,6.965c-0.019,3.86 3.106,7.015 6.965,7.035h0.033M36.88,24.221l-30.853,30.521c-5.332,5.28 -5.375,13.883 -0.095,19.216c2.657,2.683 6.156,4.027 9.655,4.027c3.455,0 6.911,-1.309 9.56,-3.932l30.853,-30.521l-19.12,-19.311zM16.001,70c-0.01,0 -0.02,0 -0.03,0c-3.314,-0.016 -5.987,-2.716 -5.97,-6.03c0.016,-3.304 2.699,-5.97 5.999,-5.97c0.01,0 0.02,0 0.03,0c3.314,0.016 5.987,2.716 5.97,6.03c-0.016,3.303 -2.699,5.97 -5.999,5.97z" fill="#ffffff"></path><g><path d="M58.569,47.575c-6.443,0 -13.061,-2.951 -18.153,-8.095c-4.472,-4.516 -7.245,-10.17 -7.812,-15.921c-0.562,-5.713 1.124,-10.836 4.75,-14.426c3.998,-3.958 10.951,-6.617 17.303,-6.617c2.919,0 5.557,0.53 7.854,1.576l-15.079,14.943l3.459,10.056l10.025,3.561l15.078,-14.943c3.63,8.194 0.235,19.689 -5.262,25.131c-3.128,3.098 -7.334,4.735 -12.163,4.735c0.001,0 0.001,0 0,0z" fill="#434343"></path><path d="M54.657,3.015c2.565,0 4.904,0.418 6.974,1.244l-14.328,14.2l-0.446,0.441l0.204,0.594l3.278,9.531l0.157,0.456l0.454,0.161l9.502,3.376l0.592,0.21l0.446,-0.442l14.327,-14.199c3.081,7.95 -0.208,18.719 -5.438,23.897c-3.032,3.002 -7.116,4.589 -11.811,4.589c-6.31,0 -12.797,-2.896 -17.798,-7.947c-4.391,-4.434 -7.114,-9.981 -7.669,-15.619c-0.547,-5.56 1.088,-10.54 4.605,-14.022c3.911,-3.869 10.722,-6.47 16.951,-6.47M54.657,2.015c-6.667,0 -13.638,2.786 -17.654,6.762c-7.722,7.647 -6.353,21.55 3.058,31.055c5.37,5.423 12.2,8.243 18.508,8.243c4.747,0 9.199,-1.596 12.515,-4.879c5.867,-5.809 9.228,-17.981 5.061,-26.34l-15.358,15.22l-9.502,-3.376l-3.278,-9.531l15.358,-15.221c-2.624,-1.341 -5.634,-1.933 -8.708,-1.933z" fill="#ffffff"></path></g></g></g></svg>